<svg width="138" height="18" viewBox="0 0 138 18" fill="none" xmlns="http://www.w3.org/2000/svg">
<path d="M105.906 7.03906C106.672 6.94531 107.816 6.8125 109.34 6.64062C110.863 6.46875 112.422 6.30859 114.016 6.16016C115.609 6.01172 117.215 5.88281 118.832 5.77344C120.449 5.66406 122.035 5.59375 123.59 5.5625C125.145 5.53125 126.762 5.53516 128.441 5.57422C130.121 5.61328 131.488 5.68359 132.543 5.78516C133.598 5.88672 134.438 6.21094 135.062 6.75781C134.422 6.96094 133.836 7.02734 133.305 6.95703C132.773 6.88672 132.203 6.83203 131.594 6.79297C130.984 6.75391 130.254 6.74609 129.402 6.76953C128.551 6.79297 127.52 6.82422 126.309 6.86328C125.098 6.90234 123.805 6.92969 122.43 6.94531C121.055 6.96094 119.66 7.02734 118.246 7.14453C116.832 7.26172 115.488 7.38672 114.215 7.51953C112.941 7.65234 111.617 7.77344 110.242 7.88281C108.867 7.99219 107.891 8.06641 107.312 8.10547C106.734 8.14453 106.258 8.1875 105.883 8.23438C105.508 8.28125 105.199 8.36328 104.957 8.48047C104.715 8.59766 104.457 8.77344 104.184 9.00781C103.91 9.24219 103.57 9.56641 103.164 9.98047C102.758 10.3945 102.277 10.9336 101.723 11.5977C101.168 12.2617 100.676 12.832 100.246 13.3086C99.8164 13.7852 99.5078 14.2305 99.3203 14.6445C99.1328 15.0586 99.1094 15.4258 99.25 15.7461C99.3906 16.0664 99.6562 16.2617 100.047 16.332C100.438 16.4023 101.188 16.2461 102.297 15.8633C103.406 15.4805 104.195 15.1406 104.664 14.8438C105.133 14.5469 105.488 14.3594 105.73 14.2812C105.973 14.2031 106.16 14.2539 106.293 14.4336C106.426 14.6133 106.234 14.9219 105.719 15.3594C105.203 15.7969 104.742 16.1328 104.336 16.3672C103.93 16.6016 103.465 16.8203 102.941 17.0234C102.418 17.2266 101.828 17.375 101.172 17.4688C100.75 17.5312 100.352 17.5625 99.9766 17.5625C99.7422 17.5625 99.5156 17.5547 99.2969 17.5391C98.7031 17.4766 98.2383 17.3398 97.9023 17.1289C97.5664 16.918 97.3438 16.6406 97.2344 16.2969C97.1094 15.9844 97.0469 15.7031 97.0469 15.4531C97.0469 15.4375 97.0547 15.4141 97.0703 15.3828C97.0703 15.1172 97.1484 14.7734 97.3047 14.3516C97.4609 13.9297 97.6758 13.4844 97.9492 13.0156C98.2227 12.5469 98.8516 11.8672 99.8359 10.9766C100.82 10.0859 101.547 9.28906 102.016 8.58594C101.297 8.67969 100.816 8.73047 100.574 8.73828C100.332 8.74609 100.188 8.60156 100.141 8.30469C100.094 8.00781 100.164 7.78906 100.352 7.64844C100.539 7.50781 100.906 7.40234 101.453 7.33203C102 7.26172 102.57 7.17188 103.164 7.0625C104.211 6.07812 105.066 5.28906 105.73 4.69531C106.395 4.10156 107.105 3.46094 107.863 2.77344C108.621 2.08594 109.34 1.51172 110.02 1.05078C110.699 0.589844 111.289 0.351562 111.789 0.335938C112.086 0.726562 111.809 1.30078 110.957 2.05859C110.105 2.81641 109.43 3.44531 108.93 3.94531C108.43 4.44531 107.949 4.92578 107.488 5.38672C107.027 5.84766 106.5 6.39844 105.906 7.03906Z" fill="black"/>
<path d="M89.5938 13.4727C90.2578 13.0586 90.832 12.6602 91.3164 12.2773C91.8086 11.8867 91.9922 11.5938 91.8672 11.3984C91.75 11.1953 91.5156 11.1953 91.1641 11.3984C90.8203 11.6016 90.4961 11.8984 90.1914 12.2891C89.8945 12.6797 89.6953 13.0742 89.5938 13.4727ZM97.75 14.6562C97.5469 15.1484 97.1523 15.5547 96.5664 15.875C95.9805 16.1875 95.2852 16.4648 94.4805 16.707C93.6758 16.9492 92.7734 17.0703 91.7734 17.0703C90.7109 17.0703 89.9375 16.9883 89.4531 16.8242C88.9766 16.6523 88.5469 16.3945 88.1641 16.0508C87.7891 15.6992 87.6016 15.1797 87.6016 14.4922C87.6016 13.8359 87.7031 13.2891 87.9062 12.8516C88.1094 12.4141 88.4375 11.9336 88.8906 11.4102C89.3516 10.8867 89.8555 10.4453 90.4023 10.0859C90.957 9.72656 91.5703 9.54688 92.2422 9.54688C92.7266 9.54688 93.1484 9.67578 93.5078 9.93359C93.8672 10.1914 94.0195 10.6367 93.9648 11.2695C93.9102 11.9023 93.5312 12.4688 92.8281 12.9688C92.125 13.4688 91.4688 13.8672 90.8594 14.1641C90.2578 14.4609 89.9961 14.6875 90.0742 14.8438C90.1602 14.9922 90.3828 15.1289 90.7422 15.2539C91.1016 15.3711 91.6914 15.4336 92.5117 15.4414C93.332 15.4492 94.0625 15.3711 94.7031 15.207C95.3438 15.043 95.8633 14.8672 96.2617 14.6797C96.6602 14.4922 96.9727 14.3672 97.1992 14.3047C97.4258 14.2422 97.6094 14.3594 97.75 14.6562Z" fill="black"/>
<path d="M61.0703 14.4453C60.3047 15.0859 59.8359 15.3633 59.6641 15.2773C59.4922 15.1914 59.375 15.0156 59.3125 14.75C59.3125 14.5781 59.3711 14.4141 59.4883 14.2578C59.6055 14.1016 60 13.7383 60.6719 13.168C61.3438 12.5977 62.0703 12.0234 62.8516 11.4453C63.6328 10.8672 64.4141 10.3867 65.1953 10.0039C65.9766 9.62109 66.75 9.34375 67.5156 9.17188H67.8438C68.4688 9.26562 68.8945 9.42969 69.1211 9.66406C69.3477 9.89844 69.4453 10.1523 69.4141 10.4258C69.3828 10.6992 69.1875 11.0898 68.8281 11.5977C68.4688 12.1055 67.9844 12.6055 67.375 13.0977C66.7656 13.5898 66.2617 14.0117 65.8633 14.3633C65.4648 14.7148 65.4219 14.875 65.7344 14.8438C66.0469 14.8125 66.5234 14.6602 67.1641 14.3867C67.8047 14.1133 68.3828 13.8164 68.8984 13.4961C69.4141 13.1758 69.9648 12.8906 70.5508 12.6406C71.1367 12.3906 71.8281 12.1367 72.625 11.8789C73.4219 11.6211 74.0664 11.5469 74.5586 11.6562C75.0508 11.7656 75.375 12.0938 75.5312 12.6406C75.6875 13.1875 75.6055 13.7305 75.2852 14.2695C74.9648 14.8086 75.0312 15.0273 75.4844 14.9258C75.9375 14.8242 76.4648 14.6406 77.0664 14.375C77.668 14.1094 78.207 13.8672 78.6836 13.6484C79.1602 13.4297 79.7383 13.1641 80.418 12.8516C81.0977 12.5391 81.8125 12.2852 82.5625 12.0898C83.3125 11.8945 83.9062 11.918 84.3438 12.1602C84.7812 12.4023 85.0234 12.7227 85.0703 13.1211C85.1172 13.5195 84.9805 13.9141 84.6602 14.3047C84.3398 14.6953 84.1094 15.0312 83.9688 15.3125C83.8281 15.5938 84.0312 15.6953 84.5781 15.6172C85.125 15.5391 85.8711 15.2578 86.8164 14.7734C87.7617 14.2891 88.6016 13.7578 89.3359 13.1797C89.4766 13.3203 89.5469 13.4766 89.5469 13.6484C89.5469 13.8047 89.4531 14.0352 89.2656 14.3398C89.0781 14.6445 88.4375 15.1289 87.3438 15.793C86.25 16.457 84.9688 16.8828 83.5 17.0703C82.3438 17.0234 81.6758 16.7969 81.4961 16.3906C81.3164 15.9844 81.3828 15.6562 81.6953 15.4062C82.0078 15.1562 82.2734 14.8203 82.4922 14.3984C82.7109 13.9766 82.4805 13.8789 81.8008 14.1055C81.1211 14.332 80.4844 14.582 79.8906 14.8555C79.2969 15.1289 78.5156 15.4102 77.5469 15.6992C76.5781 15.9883 75.6289 16.2734 74.6992 16.5547C73.7695 16.8359 72.9844 16.9922 72.3438 17.0234C71.8281 17.0234 71.5625 16.8672 71.5469 16.5547C71.6094 16.0078 71.8711 15.5703 72.332 15.2422C72.793 14.9141 73.1172 14.5625 73.3047 14.1875C73.4922 13.8125 73.2969 13.6445 72.7188 13.6836C72.1406 13.7227 71.5781 13.8438 71.0312 14.0469C70.4844 14.25 69.7539 14.5547 68.8398 14.9609C67.9258 15.3672 67.0156 15.75 66.1094 16.1094C65.2031 16.4688 64.5039 16.707 64.0117 16.8242C63.5195 16.9414 63.0625 17 62.6406 17C62.3125 17 62.043 16.9922 61.832 16.9766C61.6211 16.9609 61.457 16.8516 61.3398 16.6484C61.2227 16.4453 61.2695 16.1992 61.4805 15.9102C61.6914 15.6211 62.1836 15.2305 62.957 14.7383C63.7305 14.2461 64.4023 13.7969 64.9727 13.3906C65.543 12.9844 66.0938 12.5586 66.625 12.1133C67.1562 11.668 67.3633 11.3359 67.2461 11.1172C67.1289 10.8984 66.8086 10.875 66.2852 11.0469C65.7617 11.2188 65.1953 11.4922 64.5859 11.8672C63.9766 12.2422 63.0938 12.8672 61.9375 13.7422L61.0703 14.4453Z" fill="black"/>
<path d="M32.7812 14.4453C32.0156 15.0859 31.5469 15.3633 31.375 15.2773C31.2031 15.1914 31.0859 15.0156 31.0234 14.75C31.0234 14.5781 31.082 14.4141 31.1992 14.2578C31.3164 14.1016 31.7109 13.7383 32.3828 13.168C33.0547 12.5977 33.7812 12.0234 34.5625 11.4453C35.3438 10.8672 36.125 10.3867 36.9062 10.0039C37.6875 9.62109 38.4609 9.34375 39.2266 9.17188H39.5547C40.1797 9.26562 40.6055 9.42969 40.832 9.66406C41.0586 9.89844 41.1562 10.1523 41.125 10.4258C41.0938 10.6992 40.8984 11.0898 40.5391 11.5977C40.1797 12.1055 39.6953 12.6055 39.0859 13.0977C38.4766 13.5898 37.9727 14.0117 37.5742 14.3633C37.1758 14.7148 37.1328 14.875 37.4453 14.8438C37.7578 14.8125 38.2344 14.6602 38.875 14.3867C39.5156 14.1133 40.0938 13.8164 40.6094 13.4961C41.125 13.1758 41.6758 12.8906 42.2617 12.6406C42.8477 12.3906 43.5391 12.1367 44.3359 11.8789C45.1328 11.6211 45.7773 11.5469 46.2695 11.6562C46.7617 11.7656 47.0859 12.0938 47.2422 12.6406C47.3984 13.1875 47.3164 13.7305 46.9961 14.2695C46.6758 14.8086 46.7422 15.0273 47.1953 14.9258C47.6484 14.8242 48.1758 14.6406 48.7773 14.375C49.3789 14.1094 49.918 13.8672 50.3945 13.6484C50.8711 13.4297 51.4492 13.1641 52.1289 12.8516C52.8086 12.5391 53.5234 12.2852 54.2734 12.0898C55.0234 11.8945 55.6172 11.918 56.0547 12.1602C56.4922 12.4023 56.7344 12.7227 56.7812 13.1211C56.8281 13.5195 56.6914 13.9141 56.3711 14.3047C56.0508 14.6953 55.8203 15.0312 55.6797 15.3125C55.5391 15.5938 55.7422 15.6953 56.2891 15.6172C56.8359 15.5391 57.582 15.2578 58.5273 14.7734C59.4727 14.2891 60.3125 13.7578 61.0469 13.1797C61.1875 13.3203 61.2578 13.4766 61.2578 13.6484C61.2578 13.8047 61.1641 14.0352 60.9766 14.3398C60.7891 14.6445 60.1484 15.1289 59.0547 15.793C57.9609 16.457 56.6797 16.8828 55.2109 17.0703C54.0547 17.0234 53.3867 16.7969 53.207 16.3906C53.0273 15.9844 53.0938 15.6562 53.4062 15.4062C53.7188 15.1562 53.9844 14.8203 54.2031 14.3984C54.4219 13.9766 54.1914 13.8789 53.5117 14.1055C52.832 14.332 52.1953 14.582 51.6016 14.8555C51.0078 15.1289 50.2266 15.4102 49.2578 15.6992C48.2891 15.9883 47.3398 16.2734 46.4102 16.5547C45.4805 16.8359 44.6953 16.9922 44.0547 17.0234C43.5391 17.0234 43.2734 16.8672 43.2578 16.5547C43.3203 16.0078 43.582 15.5703 44.043 15.2422C44.5039 14.9141 44.8281 14.5625 45.0156 14.1875C45.2031 13.8125 45.0078 13.6445 44.4297 13.6836C43.8516 13.7227 43.2891 13.8438 42.7422 14.0469C42.1953 14.25 41.4648 14.5547 40.5508 14.9609C39.6367 15.3672 38.7266 15.75 37.8203 16.1094C36.9141 16.4688 36.2148 16.707 35.7227 16.8242C35.2305 16.9414 34.7734 17 34.3516 17C34.0234 17 33.7539 16.9922 33.543 16.9766C33.332 16.9609 33.168 16.8516 33.0508 16.6484C32.9336 16.4453 32.9805 16.1992 33.1914 15.9102C33.4023 15.6211 33.8945 15.2305 34.668 14.7383C35.4414 14.2461 36.1133 13.7969 36.6836 13.3906C37.2539 12.9844 37.8047 12.5586 38.3359 12.1133C38.8672 11.668 39.0742 11.3359 38.957 11.1172C38.8398 10.8984 38.5195 10.875 37.9961 11.0469C37.4727 11.2188 36.9062 11.4922 36.2969 11.8672C35.6875 12.2422 34.8047 12.8672 33.6484 13.7422L32.7812 14.4453Z" fill="black"/>
<path d="M23.875 13.4727C24.5391 13.0586 25.1133 12.6602 25.5977 12.2773C26.0898 11.8867 26.2734 11.5938 26.1484 11.3984C26.0312 11.1953 25.7969 11.1953 25.4453 11.3984C25.1016 11.6016 24.7773 11.8984 24.4727 12.2891C24.1758 12.6797 23.9766 13.0742 23.875 13.4727ZM32.0312 14.6562C31.8281 15.1484 31.4336 15.5547 30.8477 15.875C30.2617 16.1875 29.5664 16.4648 28.7617 16.707C27.957 16.9492 27.0547 17.0703 26.0547 17.0703C24.9922 17.0703 24.2188 16.9883 23.7344 16.8242C23.2578 16.6523 22.8281 16.3945 22.4453 16.0508C22.0703 15.6992 21.8828 15.1797 21.8828 14.4922C21.8828 13.8359 21.9844 13.2891 22.1875 12.8516C22.3906 12.4141 22.7188 11.9336 23.1719 11.4102C23.6328 10.8867 24.1367 10.4453 24.6836 10.0859C25.2383 9.72656 25.8516 9.54688 26.5234 9.54688C27.0078 9.54688 27.4297 9.67578 27.7891 9.93359C28.1484 10.1914 28.3008 10.6367 28.2461 11.2695C28.1914 11.9023 27.8125 12.4688 27.1094 12.9688C26.4062 13.4688 25.75 13.8672 25.1406 14.1641C24.5391 14.4609 24.2773 14.6875 24.3555 14.8438C24.4414 14.9922 24.6641 15.1289 25.0234 15.2539C25.3828 15.3711 25.9727 15.4336 26.793 15.4414C27.6133 15.4492 28.3438 15.3711 28.9844 15.207C29.625 15.043 30.1445 14.8672 30.543 14.6797C30.9414 14.4922 31.2539 14.3672 31.4805 14.3047C31.707 14.2422 31.8906 14.3594 32.0312 14.6562Z" fill="black"/>
</svg>
